<svg width="169" height="26" viewBox="0 0 169 26" fill="none" xmlns="http://www.w3.org/2000/svg">
<path d="M6.41016 16.0801V17H1.89258V16.0801H6.41016ZM2.12109 8.46875V17H0.990234V8.46875H2.12109ZM5.8125 12.1367V13.0566H1.89258V12.1367H5.8125ZM6.35156 8.46875V9.39453H1.89258V8.46875H6.35156ZM8.37891 10.6602L9.76758 12.9688L11.1738 10.6602H12.4453L10.3711 13.7891L12.5098 17H11.2559L9.79102 14.6211L8.32617 17H7.06641L9.19922 13.7891L7.13086 10.6602H8.37891ZM16.0195 16.2266C16.2773 16.2266 16.5156 16.1738 16.7344 16.0684C16.9531 15.9629 17.1328 15.8184 17.2734 15.6348C17.4141 15.4473 17.4941 15.2344 17.5137 14.9961H18.5449C18.5254 15.3711 18.3984 15.7207 18.1641 16.0449C17.9336 16.3652 17.6309 16.625 17.2559 16.8242C16.8809 17.0195 16.4688 17.1172 16.0195 17.1172C15.543 17.1172 15.127 17.0332 14.7715 16.8652C14.4199 16.6973 14.127 16.4668 13.8926 16.1738C13.6621 15.8809 13.4883 15.5449 13.3711 15.166C13.2578 14.7832 13.2012 14.3789 13.2012 13.9531V13.707C13.2012 13.2812 13.2578 12.8789 13.3711 12.5C13.4883 12.1172 13.6621 11.7793 13.8926 11.4863C14.127 11.1934 14.4199 10.9629 14.7715 10.7949C15.127 10.627 15.543 10.543 16.0195 10.543C16.5156 10.543 16.9492 10.6445 17.3203 10.8477C17.6914 11.0469 17.9824 11.3203 18.1934 11.668C18.4082 12.0117 18.5254 12.4023 18.5449 12.8398H17.5137C17.4941 12.5781 17.4199 12.3418 17.291 12.1309C17.166 11.9199 16.9941 11.752 16.7754 11.627C16.5605 11.498 16.3086 11.4336 16.0195 11.4336C15.6875 11.4336 15.4082 11.5 15.1816 11.6328C14.959 11.7617 14.7812 11.9375 14.6484 12.1602C14.5195 12.3789 14.4258 12.623 14.3672 12.8926C14.3125 13.1582 14.2852 13.4297 14.2852 13.707V13.9531C14.2852 14.2305 14.3125 14.5039 14.3672 14.7734C14.4219 15.043 14.5137 15.2871 14.6426 15.5059C14.7754 15.7246 14.9531 15.9004 15.1758 16.0332C15.4023 16.1621 15.6836 16.2266 16.0195 16.2266ZM22.3945 17.1172C21.9531 17.1172 21.5527 17.043 21.1934 16.8945C20.8379 16.7422 20.5312 16.5293 20.2734 16.2559C20.0195 15.9824 19.8242 15.6582 19.6875 15.2832C19.5508 14.9082 19.4824 14.498 19.4824 14.0527V13.8066C19.4824 13.291 19.5586 12.832 19.7109 12.4297C19.8633 12.0234 20.0703 11.6797 20.332 11.3984C20.5938 11.1172 20.8906 10.9043 21.2227 10.7598C21.5547 10.6152 21.8984 10.543 22.2539 10.543C22.707 10.543 23.0977 10.6211 23.4258 10.7773C23.7578 10.9336 24.0293 11.1523 24.2402 11.4336C24.4512 11.7109 24.6074 12.0391 24.709 12.418C24.8105 12.793 24.8613 13.2031 24.8613 13.6484V14.1348H20.127V13.25H23.7773V13.168C23.7617 12.8867 23.7031 12.6133 23.6016 12.3477C23.5039 12.082 23.3477 11.8633 23.1328 11.6914C22.918 11.5195 22.625 11.4336 22.2539 11.4336C22.0078 11.4336 21.7812 11.4863 21.5742 11.5918C21.3672 11.6934 21.1895 11.8457 21.041 12.0488C20.8926 12.252 20.7773 12.5 20.6953 12.793C20.6133 13.0859 20.5723 13.4238 20.5723 13.8066V14.0527C20.5723 14.3535 20.6133 14.6367 20.6953 14.9023C20.7812 15.1641 20.9043 15.3945 21.0645 15.5938C21.2285 15.793 21.4258 15.9492 21.6562 16.0625C21.8906 16.1758 22.1562 16.2324 22.4531 16.2324C22.8359 16.2324 23.1602 16.1543 23.4258 15.998C23.6914 15.8418 23.9238 15.6328 24.123 15.3711L24.7793 15.8926C24.6426 16.0996 24.4688 16.2969 24.2578 16.4844C24.0469 16.6719 23.7871 16.8242 23.4785 16.9414C23.1738 17.0586 22.8125 17.1172 22.3945 17.1172ZM27.3047 8V17H26.2148V8H27.3047ZM30.2227 8V17H29.1328V8H30.2227ZM34.5938 17.1172C34.1523 17.1172 33.752 17.043 33.3926 16.8945C33.0371 16.7422 32.7305 16.5293 32.4727 16.2559C32.2188 15.9824 32.0234 15.6582 31.8867 15.2832C31.75 14.9082 31.6816 14.498 31.6816 14.0527V13.8066C31.6816 13.291 31.7578 12.832 31.9102 12.4297C32.0625 12.0234 32.2695 11.6797 32.5312 11.3984C32.793 11.1172 33.0898 10.9043 33.4219 10.7598C33.7539 10.6152 34.0977 10.543 34.4531 10.543C34.9062 10.543 35.2969 10.6211 35.625 10.7773C35.957 10.9336 36.2285 11.1523 36.4395 11.4336C36.6504 11.7109 36.8066 12.0391 36.9082 12.418C37.0098 12.793 37.0605 13.2031 37.0605 13.6484V14.1348H32.3262V13.25H35.9766V13.168C35.9609 12.8867 35.9023 12.6133 35.8008 12.3477C35.7031 12.082 35.5469 11.8633 35.332 11.6914C35.1172 11.5195 34.8242 11.4336 34.4531 11.4336C34.207 11.4336 33.9805 11.4863 33.7734 11.5918C33.5664 11.6934 33.3887 11.8457 33.2402 12.0488C33.0918 12.252 32.9766 12.5 32.8945 12.793C32.8125 13.0859 32.7715 13.4238 32.7715 13.8066V14.0527C32.7715 14.3535 32.8125 14.6367 32.8945 14.9023C32.9805 15.1641 33.1035 15.3945 33.2637 15.5938C33.4277 15.793 33.625 15.9492 33.8555 16.0625C34.0898 16.1758 34.3555 16.2324 34.6523 16.2324C35.0352 16.2324 35.3594 16.1543 35.625 15.998C35.8906 15.8418 36.123 15.6328 36.3223 15.3711L36.9785 15.8926C36.8418 16.0996 36.668 16.2969 36.457 16.4844C36.2461 16.6719 35.9863 16.8242 35.6777 16.9414C35.373 17.0586 35.0117 17.1172 34.5938 17.1172ZM39.4102 12.0137V17H38.3262V10.6602H39.3516L39.4102 12.0137ZM39.1523 13.5898L38.7012 13.5723C38.7051 13.1387 38.7695 12.7383 38.8945 12.3711C39.0195 12 39.1953 11.6777 39.4219 11.4043C39.6484 11.1309 39.918 10.9199 40.2305 10.7715C40.5469 10.6191 40.8965 10.543 41.2793 10.543C41.5918 10.543 41.873 10.5859 42.123 10.6719C42.373 10.7539 42.5859 10.8867 42.7617 11.0703C42.9414 11.2539 43.0781 11.4922 43.1719 11.7852C43.2656 12.0742 43.3125 12.4277 43.3125 12.8457V17H42.2227V12.834C42.2227 12.502 42.1738 12.2363 42.0762 12.0371C41.9785 11.834 41.8359 11.6875 41.6484 11.5977C41.4609 11.5039 41.2305 11.457 40.957 11.457C40.6875 11.457 40.4414 11.5137 40.2188 11.627C40 11.7402 39.8105 11.8965 39.6504 12.0957C39.4941 12.2949 39.3711 12.5234 39.2812 12.7812C39.1953 13.0352 39.1523 13.3047 39.1523 13.5898ZM47.6133 10.6602V11.4922H44.1855V10.6602H47.6133ZM45.3457 9.11914H46.4297V15.4297C46.4297 15.6445 46.4629 15.8066 46.5293 15.916C46.5957 16.0254 46.6816 16.0977 46.7871 16.1328C46.8926 16.168 47.0059 16.1855 47.127 16.1855C47.2168 16.1855 47.3105 16.1777 47.4082 16.1621C47.5098 16.1426 47.5859 16.127 47.6367 16.1152L47.6426 17C47.5566 17.0273 47.4434 17.0527 47.3027 17.0762C47.166 17.1035 47 17.1172 46.8047 17.1172C46.5391 17.1172 46.2949 17.0645 46.0723 16.959C45.8496 16.8535 45.6719 16.6777 45.5391 16.4316C45.4102 16.1816 45.3457 15.8457 45.3457 15.4238V9.11914Z" fill="black"/>
<g clip-path="url(#clip0_2_202)">
<path d="M82 3H62V23H82V3Z" fill="#219653"/>
<path d="M103.667 3H83.6667V23H103.667V3Z" fill="#219653"/>
<path d="M125.333 3H105.333V23H125.333V3Z" fill="#219653"/>
<path d="M147 3H127V23H147V3Z" fill="#219653"/>
<path d="M168.667 3H148.667V23H168.667V3Z" fill="#219653"/>
<path d="M71.9998 16.479L75.0414 15.7082L76.3123 19.6249L71.9998 16.479ZM78.9998 11.4165H73.6456L71.9998 6.37488L70.3539 11.4165H64.9998L69.3331 14.5415L67.6873 19.5832L72.0206 16.4582L74.6873 14.5415L78.9998 11.4165Z" fill="white"/>
<path d="M93.6664 16.479L96.708 15.7082L97.9789 19.6249L93.6664 16.479ZM100.666 11.4165H95.3122L93.6664 6.37488L92.0205 11.4165H86.6664L90.9997 14.5415L89.3539 19.5832L93.6872 16.4582L96.3539 14.5415L100.666 11.4165Z" fill="white"/>
<path d="M115.333 16.479L118.375 15.7082L119.646 19.6249L115.333 16.479ZM122.333 11.4165H116.979L115.333 6.37488L113.687 11.4165H108.333L112.666 14.5415L111.021 19.5832L115.354 16.4582L118.021 14.5415L122.333 11.4165Z" fill="white"/>
<path d="M137 16.479L140.041 15.7082L141.312 19.6249L137 16.479ZM144 11.4165H138.646L137 6.37488L135.354 11.4165H130L134.333 14.5415L132.687 19.5832L137.021 16.4582L139.687 14.5415L144 11.4165Z" fill="white"/>
<path d="M158.666 16.479L161.708 15.7082L162.979 19.6249L158.666 16.479ZM165.666 11.4165H160.312L158.666 6.37488L157.021 11.4165H151.666L156 14.5415L154.354 19.5832L158.687 16.4582L161.354 14.5415L165.666 11.4165Z" fill="white"/>
</g>
<defs>
<clipPath id="clip0_2_202">
<rect width="106.667" height="20" fill="white" transform="translate(62 3)"/>
</clipPath>
</defs>
</svg>
